<svg width="256" height="256" viewBox="148 8 155 155" fill="none" xmlns="http://www.w3.org/2000/svg">
  <path fill="#EA5310" d="M259.56,33.73l-0.41,0.59c-0.75-0.51-1.55-1.04-2.31-1.55c-11.55-7.2-29.12-11.08-39.79-11.08c-0.5,0-0.99,0.01-1.45,0.03l-0.04-0.72c0.31-0.02,0.69-0.04,1.05-0.06c0.18-0.01,0.36-0.02,0.52-0.03c0.08,0,0.46-0.02,1.11-0.02c4.06,0,18.43,0.55,32.86,7.58l0.01,0.01l2.05,1.12c1.09,0.66,2.5,1.54,4.06,2.57C258.03,32.68,258.82,33.2,259.56,33.73z"/>
  <path fill="#EA5310" d="M284.22,68.25L284.22,68.25l-0.34,0.11l-0.34,0.11c-1.8-5.44-6.13-10.69-12.85-15.6c-6.11-4.46-14.02-8.52-23.49-12.06c-17.15-6.42-38.5-10.57-55.72-10.85l-0.02-0.72c1.71-0.11,3.58-0.17,5.56-0.17c14.18,0,32.16,2.75,46.91,7.19c13.08,3.93,30.05,11.05,36.65,22.66l0.01,0.03c1.01,2.2,2.24,5.35,2.9,7.04l0.01,0.02L284.22,68.25z"/>
  <path fill="#EA5310" d="M286.39,98.14l0,0.03l-0.32,1.91c-0.49,2.28-1.28,5.38-2.11,8.3c-0.08,0.3-0.17,0.6-0.26,0.9l-0.69-0.21c0.08-0.28,0.17-0.58,0.25-0.88c1.5-5.71,0.17-11.49-3.93-17.18c-6.83-9.47-21.5-18.6-41.3-25.68c-19.35-6.92-42.43-11.54-65-13l0.01-0.72c1.75-0.06,3.56-0.09,5.39-0.09c18.24,0,39.28,2.99,57.71,8.2c9.65,2.73,18.23,5.95,25.51,9.57c7.82,3.89,13.9,8.14,18.09,12.63C284.55,87.1,286.79,92.56,286.39,98.14z"/>
  <path fill="#EA5310" d="M269.07,133.78l-0.01,0.01c-0.94,0.99-2.17,2.17-3.27,3.22c-0.32,0.3-0.63,0.6-0.91,0.87l-0.02,0.02c-1.13,0.95-2.56,2.1-4.01,3.23c-0.35,0.29-0.71,0.59-1.08,0.88c-0.39,0.3-0.87,0.64-1.34,0.98c-0.2,0.14-0.4,0.28-0.57,0.41l-0.42-0.58c0.89-0.65,1.91-1.43,2.96-2.24c5.65-4.82,7.68-10.38,5.87-16.07c-2.65-8.36-13.31-16.75-30-23.62c-18.44-7.59-43.26-12.99-71.77-15.61l0.03-0.72c0.86-0.01,1.74-0.02,2.62-0.02c21.72,0,45.62,3.4,65.56,9.33c21.36,6.35,35.4,14.77,39.53,23.71C274.72,122.93,273.66,128.39,269.07,133.78z"/>
  <path fill="#EA5310" d="M248.77,142.47c-0.75,7.3-10.92,11.82-19.9,11.82c-3.46,0-6.6-0.66-9.09-1.9l0.26-0.67c1.32,0.37,2.87,0.56,4.61,0.56c5.03,0,10.63-1.62,13.61-3.94c2.42-1.89,3.28-4.08,2.54-6.53c-1.44-4.74-8.73-9.86-19.99-14.05c-9.08-3.38-25.11-7.79-49.88-9.57l0.01-0.72c1.76-0.06,3.57-0.09,5.37-0.09c14.48,0,29.69,1.93,42.83,5.44c12.96,3.46,22.53,8.07,26.96,12.97C248.09,138.01,249,140.26,248.77,142.47z"/>
</svg>
